<svg xmlns="http://www.w3.org/2000/svg" id="Layer_1" viewBox="0 0 40.5 40.5">
  <style>
    .scheme-circle{fill-rule:evenodd;clip-rule:evenodd;fill:#FFFFFF;} .scheme-refresh-arrow{fill:#0C0C0C;}
  </style>
  <path d="M20.3 0c11.2 0 20.3 9.1 20.3 20.3s-9.1 20.3-20.3 20.3S0 31.4 0 20.3 9.1 0 20.3 0z" class="scheme-circle"/>
  <path d="M20.3 29.3c-2.4 0-4.7-.9-6.4-2.7s-2.7-4-2.7-6.4.9-4.7 2.7-6.4 4-2.7 6.4-2.7c1.7 0 3.4.5 4.8 1.4 1 .6 1.9 1.5 2.6 2.4v-3c0-.2.2-.4.4-.4s.4.2.4.4v4.3c0 .2-.1.3-.3.4-.2 0-.3 0-.4-.2-1.4-2.8-4.3-4.6-7.4-4.6-4.6 0-8.3 3.7-8.3 8.3s3.7 8.3 8.3 8.3 8.3-3.7 8.3-8.3c0-.2.2-.4.4-.4s.4.2.4.4c0 2.4-.9 4.7-2.7 6.4-1.9 1.9-4.1 2.8-6.5 2.8z" class="scheme-refresh-arrow"/>
  <path d="M28 16.8h-4.1c-.2 0-.4-.2-.4-.4s.2-.4.4-.4H28c.2 0 .4.2.4.4s-.2.4-.4.4z" class="scheme-refresh-arrow"/>
</svg>
