<svg id="Layer_1" xmlns="http://www.w3.org/2000/svg" viewBox="0 0 60 60">
  <style>
    .jobs0{fill:#0056B8;} .jobs1{fill:#FFFFFF;}
  </style>
  <path class="jobs0" d="M30 60C13.4 60 0 46.6 0 30S13.4 0 30 0s30 13.4 30 30-13.4 30-30 30z"/>
  <path class="jobs1" d="M22.7 28.3h14.7c1.9 0 3.4-1.6 3.4-3.5v-3.5H38V19c0-1.9-1.5-3.5-3.4-3.5h-9.1c-1.9 0-3.4 1.6-3.4 3.5v2.3h-2.8v3.5c-.1 1.9 1.5 3.5 3.4 3.5zm1.6-9.3c0-.6.5-1.2 1.1-1.2h9.1c.6 0 1.1.5 1.1 1.2v2.3H24.3V19zM43 21.6v3.3c0 3.2-2.6 5.8-5.7 5.8h-5.1V34c0 .6-.5 1.2-1.1 1.2h-2.3c-.6 0-1.1-.5-1.1-1.2v-3.5h-5.1c-3.1 0-5.7-2.6-5.7-5.8v-3.3c-1.3.5-2.3 1.7-2.3 3.3V41c0 1.9 1.5 3.5 3.4 3.5h23.8c1.9 0 3.4-1.6 3.4-3.5V24.8c.1-1.5-.8-2.8-2.2-3.2z"/>
</svg>
