<svg xmlns="http://www.w3.org/2000/svg" viewBox="0 0 25.2 29.2">
  <path d="M8.6 18.9h-.7v3h.7c.3 0 .6-.1.8-.3s.3-.5.3-.9V20c0-.3-.1-.6-.3-.8-.2-.2-.5-.3-.8-.3z"/>
  <path d="M19 16.3H0v7.8h16.1l2.9-7.8zM6 20.5c-.3.2-.6.3-1.1.3h-.8v1.5h-.7v-4.1H5c.4 0 .8.1 1.1.4.3.2.4.5.4.9-.1.5-.2.8-.5 1zm4.4.2c0 .5-.2.9-.5 1.2-.3.3-.7.5-1.3.5H7.3v-4.1h1.3c.5 0 .9.2 1.3.5.3.3.5.7.5 1.2v.7zm3.5-1.8H12v1.2h1.6v.5H12v1.7h-.7v-4.1h2.6v.7z"/>
  <path d="M5 18.9h-.9v1.4H5c.3 0 .4-.1.6-.2.1-.1.2-.3.2-.5s-.1-.4-.2-.5c-.2-.2-.4-.2-.6-.2z"/>
  <path d="M18.3 0H3.9c-.4 0-.8.4-.8.8v15h1.6V1.6h13.6V7h5.4v20.7h-19v-2.9H3.1v3.7c0 .4.4.8.8.8h20.5c.4 0 .8-.4.8-.8V6.9L18.3 0z"/>
  <path d="M6.8 9.7h14.8v1.1H6.8z"/>
  <path d="M6.8 11.9h12.5V13H6.8z"/>
</svg>
